<?xml version="1.0" encoding="utf-8"?>
<!-- Generator: Adobe Illustrator 23.0.3, SVG Export Plug-In . SVG Version: 6.00 Build 0)  -->
<svg version="1.1" xmlns="http://www.w3.org/2000/svg" xmlns:xlink="http://www.w3.org/1999/xlink" x="0px" y="0px"
	 viewBox="0 0 399.61 56" enable-background="new 0 0 399.61 56" xml:space="preserve">
<g id="Capa_2">
	<rect x="87.92" y="1.13" fill="#FFFFFF" width="311.3" height="33.35"/>
</g>
<g id="Capa_3">
	<g>
		<path fill="#FFFFFF" d="M70.92,8.22C69.23,4.62,72.72,0,72.72,0H52.66H39.81c-2.79,0-5.04,2.26-5.04,5.05l0.02,9.28
			c0,0-5.8,3.83-11.94,0c-6.14-3.83-16.6,0-16.6,0c-3.8,1.41-6.08,3.94-6.08,3.94L0,18.53l0.17,0.25c0,0,2.28,2.53,6.08,3.94
			c0,0,10.47,3.82,16.6,0c6.14-3.83,11.94,0,11.94,0l-0.02,8.7c0,2.79,2.26,5.04,5.04,5.04l12.84,0.01h17.7c0,0,1.73-4.3,0.22-6.42
			c-1.91-2.7,0-6.53,0-6.53c2.65-2.98,0.23-5.29,0.23-5.29c-1.46-1.8,0.45-4.28,0.45-4.28C73.63,12.05,70.92,8.22,70.92,8.22z"/>
	</g>
</g>
<g id="Layer_1">
	<g>
		<path fill="#2D4777" d="M250.54,27.01"/>
	</g>
	<g>
		<g>
			<path fill="#2D4777" d="M70.92,8.22C69.23,4.62,72.72,0,72.72,0H52.66H39.81c-2.79,0-5.04,2.26-5.04,5.05l0.02,9.28
				c0,0-5.8,3.83-11.94,0c-6.14-3.83-16.6,0-16.6,0c-3.8,1.41-6.08,3.94-6.08,3.94L0,18.53l0.17,0.25c0,0,2.28,2.53,6.08,3.94
				c0,0,10.47,3.82,16.6,0c6.14-3.83,11.94,0,11.94,0l-0.02,8.7c0,2.79,2.26,5.04,5.04,5.04l12.84,0.01h17.7c0,0,1.73-4.3,0.22-6.42
				c-1.91-2.7,0-6.53,0-6.53c2.65-2.98,0.23-5.29,0.23-5.29c-1.46-1.8,0.45-4.28,0.45-4.28C73.63,12.05,70.92,8.22,70.92,8.22z
				 M34.79,22.1c0,0-5.8-3.83-11.94,0c-6.14,3.83-16.6,0-16.6,0c-1.71-0.66-2.87-1.59-2.87-1.59c1.75-1.74,0-3.97,0-3.97
				s1.16-0.93,2.87-1.59c0,0,10.47-3.83,16.6,0c6.14,3.83,11.94,0,11.94,0V22.1z M42.62,35.76h-2.26c-3.08,0-4.89-1.8-4.89-4.88
				V5.56c0-3.03,1.89-4.89,4.89-4.89h2.26V35.76z M52.66,35.76h-9.31V0.67h9.31V35.76z"/>
		</g>
		<g>
			<g>
				<polygon fill="#2D4777" points="299.03,18.17 302.34,18.17 300.66,14.05 				"/>
			</g>
			<g>
				<polygon fill="#2D4777" points="264.14,18.1 267.43,18.1 265.77,13.99 				"/>
			</g>
			<g>
				<path fill="#2D4777" d="M83.52,0c0,0-4.38,5.18-2.03,8.56c1.59,2.7-0.68,5.4-0.68,5.4c-1.67,1.58,0,3.72,0,3.72
					c2.21,2.03,0.56,4.56,0.56,4.56c-2.92,3.37-1.46,6.47-1.46,6.47c2.03,3.49,0,7.77,0,7.77h319.69V0H83.52z M107.08,26.55h-16.1
					V7.3h15.72v4.43H96.24v2.56h9.73v4.4h-9.74l0.03,3.47h10.82V26.55z M124.12,26.55h-14.98V7.47h5.28v14.69h9.7V26.55z
					 M153.94,23.87c-1.03,0.9-2.41,1.64-4.18,2.2c-1.63,0.53-3.23,0.79-4.75,0.79c-4.56,0-7.67-1.63-9.36-4.9
					c-0.83-1.57-1.24-3.27-1.24-5.12c0-4,1.79-7.13,5.36-8.84c1.35-0.64,3.02-0.98,5.01-0.98c5.12,0,8.27,2.12,9.03,6.51l-5.23,0.85
					c-0.42-1.94-1.52-2.92-3.82-2.92c-1.46,0-2.92,0.39-3.74,1.41c-0.71,0.87-1.17,1.88-1.17,3.81c0,1.99,0.45,3.25,1.16,4.14
					c1.1,1.37,2.47,1.61,3.54,1.62c1.69,0.03,2.97-0.5,4.05-1.23v-1.23h-4.47v-4.37l9.81,0.01V23.87z M189.18,26.55l-1.86-4.06
					h-6.62l-1.66,4.06h-3.5l-6.23-0.02l-3.04-4.15c-0.91-1.25-1.4-1.93-1.5-2.03c-0.81-0.86-1.03-0.94-1.65-1.14
					c-0.42-0.15-1.62-0.14-1.62-0.14v7.46h-5.28V7.34h8.83c1.83,0,3.18,0.09,4.02,0.29c1.43,0.32,2.56,0.97,3.26,2.02
					c0.61,0.88,1.03,1.93,1.07,3.06c0.1,2.91-1.26,4.74-4.05,5.61c1.04,0.55,2.78,3.2,3.64,4.49l1.23,1.77l7.28-17.23h5.08
					l8.33,19.21H189.18z M212.03,26.55h-4.98l-6.72-10.13v10.13h-5.03V7.34h4.88l6.84,10.24V7.34h5.01V26.55z M239.73,11.72h-5.75
					v14.83h-5.3V11.73h-5.69V7.34h16.74V11.72z M270.92,26.55l-1.88-4.11h-6.61l-1.66,4.11h-4.1h-4.22h-11.43V7.34h5.28v14.83h9.71
					l-0.01,2.27l7.24-17.09h5.06l8.34,19.21H270.92z M283.81,19.81h-1.56v6.74h-5.31V7.34h2.91h3.75c2.66,0,4.4,0.09,5.21,0.29
					c1.42,0.36,2.52,1.09,3.32,2.21c0.72,1.03,1.08,2.26,1.08,3.67c0,2.28-0.85,3.97-2.57,5.08c-0.77,0.49-1.53,0.8-2.29,0.94
					C287.37,19.72,285.83,19.81,283.81,19.81z M305.79,26.61l-1.84-4.11h-6.62l-1.68,4.11h-5.64l8.11-19.21h5.06l8.33,19.21H305.79z
					 M326.98,26.55h-14.99V7.34h5.3v14.83h9.7V26.55z M344.52,26.55H328.4V7.3h15.74v4.43h-10.46v2.56h9.73v4.4h-9.74l0.02,3.47
					h10.84V26.55z M359.58,26.55l-2.84-3.89c-0.85-1.17-1.31-1.8-1.39-1.9c-0.66-0.8-1.1-1.29-1.67-1.47c0,0-0.43-0.2-1.93-0.2v7.46
					h-1.05h-4.23V7.31h7.12h1.53c1.94,0,3.36,0.1,4.26,0.31c1.53,0.35,2.66,1.08,3.4,2.18c0.65,0.93,0.97,2,0.97,3.2
					c0,2.75-1.39,4.52-4.19,5.31l0.07,0.01c1.08,0.73,1.52,1.48,2.21,2.35c0.46,0.59,1,1.42,1.87,2.72l2.16,3.16H359.58z
					 M380.79,24.15c-1.59,1.85-3.8,2.77-6.62,2.77c-2.84,0-5.05-0.9-6.65-2.71c-1.56-1.76-2.33-4.11-2.33-7.09
					c0-3.2,0.87-5.71,2.56-7.53c1.56-1.66,3.67-2.49,6.38-2.49c2.84,0,5.08,0.93,6.65,2.77c1.54,1.78,2.31,4.17,2.31,7.17
					C383.08,20.02,382.34,22.39,380.79,24.15z M393.49,33.41c-2.63,0-4.73-2.12-4.73-4.73c0-2.62,2.11-4.73,4.73-4.73
					c2.6,0,4.73,2.11,4.73,4.73C398.22,31.29,396.1,33.41,393.49,33.41z"/>
			</g>
			<g>
				<polygon fill="#2D4777" points="182.42,18.1 185.72,18.1 184.06,13.99 				"/>
			</g>
			<g>
				<path fill="#2D4777" d="M286.2,11.83c-0.34-0.06-1.04-0.09-2.06-0.09h-1.89v3.66h2.08c0.85,0,1.41-0.03,1.73-0.08
					c0.65-0.11,1.11-0.36,1.41-0.76c0.21-0.29,0.32-0.62,0.32-1.01C287.79,12.58,287.25,12,286.2,11.83z"/>
			</g>
			<g>
				<path fill="#2D4777" d="M356.92,11.77c-0.2-0.02-0.84-0.03-1.96-0.03h-3.22v3.12h3.09c0.99,0,1.58-0.01,1.7-0.03
					c0.73-0.07,1.23-0.29,1.49-0.64c0.18-0.25,0.27-0.55,0.27-0.92C358.3,12.41,357.84,11.91,356.92,11.77z"/>
			</g>
			<g>
				<path fill="#2D4777" d="M166.66,11.77c-0.2-0.03-0.87-0.04-2.01-0.04h-3.17v3.16h3.07c1,0,1.58-0.01,1.73-0.03
					c0.73-0.07,1.22-0.29,1.49-0.66c0.18-0.25,0.28-0.56,0.28-0.93C168.05,12.41,167.59,11.9,166.66,11.77z"/>
			</g>
			<g>
				<path fill="#2D4777" d="M394.56,27.53c0-0.33-0.17-0.52-0.52-0.57c-0.08-0.01-0.33-0.01-0.76-0.01h-0.8v1.19h0.76
					c0.37,0,0.59,0,0.65-0.01c0.28-0.03,0.46-0.11,0.56-0.25C394.52,27.78,394.56,27.67,394.56,27.53z"/>
			</g>
			<g>
				<path fill="#2D4777" d="M393.49,24.82c-2.14,0-3.87,1.73-3.87,3.86c0,2.13,1.73,3.85,3.87,3.85c2.12,0,3.85-1.73,3.85-3.85
					C397.35,26.55,395.62,24.82,393.49,24.82z M394.8,30.87l-0.73-1.03c-0.23-0.31-0.37-0.47-0.38-0.5
					c-0.17-0.21-0.34-0.35-0.48-0.39c-0.11-0.03-0.28-0.05-0.52-0.05h-0.21v1.98h-1.05v-4.72h2.18c0.46,0,0.8,0.02,1.01,0.07
					c0.35,0.08,0.62,0.25,0.8,0.51c0.13,0.22,0.21,0.46,0.21,0.74c0,0.75-0.45,1.19-1.36,1.31c0.27,0.14,0.49,0.31,0.67,0.51
					c0.11,0.12,0.27,0.34,0.48,0.66l0.63,0.92H394.8z"/>
			</g>
			<g>
				<path fill="#2D4777" d="M374.17,11.53c-1.39,0-2.44,0.55-3.14,1.65c-0.62,0.95-0.91,2.22-0.91,3.81c0,1.57,0.32,2.84,0.93,3.81
					c0.72,1.13,1.77,1.69,3.12,1.69c1.36,0,2.41-0.57,3.11-1.71c0.6-0.97,0.91-2.25,0.91-3.82c0-1.59-0.31-2.86-0.91-3.8
					C376.6,12.07,375.55,11.53,374.17,11.53z"/>
			</g>
		</g>
	</g>
	<g>
		<g>
			<path fill="#2D4777" d="M171.4,47.36h-3.8l-0.6,3.15h4.28l-0.3,1.56h-6.11l2.01-10.59h5.88l-0.31,1.56h-4.03l-0.53,2.77h3.81
				L171.4,47.36z"/>
			<path fill="#2D4777" d="M172.97,52.07l2.13-11.16h1.83l-2.13,11.16H172.97z"/>
			<path fill="#2D4777" d="M179.9,55.19l1.5-7.92c0.17-0.91,0.34-2.07,0.44-2.85h1.65l-0.17,1.26h0.03
				c0.65-0.91,1.61-1.43,2.59-1.43c1.66,0,2.42,1.35,2.42,2.84c0,2.67-1.84,5.16-4.45,5.16c-0.7,0-1.24-0.16-1.52-0.33h-0.03
				l-0.62,3.27H179.9z M182.64,50.45c0.29,0.24,0.69,0.39,1.22,0.39c1.42,0,2.58-1.89,2.58-3.61c0-0.69-0.3-1.48-1.2-1.48
				c-0.93,0-1.94,1.04-2.26,2.83L182.64,50.45z"/>
			<path fill="#2D4777" d="M197.31,47.42c0,2.6-1.81,4.83-4.43,4.83c-1.93,0-3.13-1.33-3.13-3.15c0-2.59,1.81-4.84,4.42-4.84
				C196.23,44.25,197.31,45.73,197.31,47.42z M191.65,49.04c0,1.05,0.56,1.79,1.49,1.79c1.37,0,2.28-1.89,2.28-3.41
				c0-0.79-0.35-1.76-1.46-1.76C192.5,45.66,191.64,47.61,191.65,49.04z"/>
			<path fill="#2D4777" d="M198.49,52.07l0.9-4.72c0.2-1.08,0.31-2.25,0.39-2.93h1.59c-0.05,0.52-0.1,1.05-0.17,1.61h0.05
				c0.52-1.03,1.36-1.78,2.4-1.78c0.13,0,0.28,0.01,0.4,0.02l-0.36,1.79c-0.1-0.01-0.22-0.02-0.36-0.02c-1.3,0-2.13,1.32-2.43,2.95
				l-0.58,3.08H198.49z"/>
			<path fill="#2D4777" d="M208.67,42.32l-0.4,2.1h1.72l-0.28,1.41h-1.72l-0.6,3.1c-0.07,0.36-0.14,0.75-0.14,1.08
				c0,0.41,0.19,0.69,0.68,0.69c0.21,0,0.43-0.01,0.62-0.04l-0.17,1.44c-0.27,0.1-0.75,0.16-1.19,0.16c-1.27,0-1.82-0.69-1.82-1.57
				c0-0.43,0.05-0.85,0.16-1.43l0.66-3.41h-1.03l0.27-1.41h1.03l0.31-1.66L208.67,42.32z"/>
			<path fill="#2D4777" d="M215.37,52.07c0.01-0.45,0.06-1.07,0.13-1.72h-0.04c-0.76,1.41-1.77,1.89-2.75,1.89
				c-1.36,0-2.26-1.07-2.26-2.6c0-2.62,1.82-5.39,5.39-5.39c0.83,0,1.73,0.16,2.32,0.34l-0.79,3.99c-0.22,1.14-0.34,2.58-0.31,3.49
				H215.37z M216.12,45.75c-0.18-0.05-0.42-0.08-0.75-0.08c-1.69,0-3,1.91-3,3.64c0,0.8,0.3,1.46,1.1,1.46
				c0.86,0,1.9-1.06,2.26-3.01L216.12,45.75z"/>
			<path fill="#2D4777" d="M219.22,52.07l2.13-11.16h1.83l-2.13,11.16H219.22z"/>
			<path fill="#2D4777" d="M228.87,41.48h5.84l-0.31,1.56h-3.99l-0.57,2.98h3.71l-0.3,1.55h-3.71l-0.85,4.51h-1.83L228.87,41.48z"/>
			<path fill="#2D4777" d="M240.48,51.63c-0.75,0.39-1.78,0.6-2.71,0.6c-2.12,0-3.13-1.3-3.13-3.17c0-2.31,1.7-4.82,4.33-4.82
				c1.51,0,2.48,0.87,2.48,2.15c0,1.97-2.06,2.6-5.02,2.53c-0.03,0.27,0.04,0.78,0.2,1.09c0.3,0.52,0.85,0.78,1.57,0.78
				c0.86,0,1.56-0.22,2.11-0.5L240.48,51.63z M238.73,45.62c-1.14,0-1.89,1.02-2.12,1.95c1.89,0.02,3.1-0.24,3.1-1.16
				C239.71,45.92,239.32,45.62,238.73,45.62z"/>
			<path fill="#2D4777" d="M242.39,52.07l0.9-4.72c0.2-1.08,0.31-2.25,0.39-2.93h1.59c-0.05,0.52-0.1,1.05-0.17,1.61h0.05
				c0.52-1.03,1.36-1.78,2.4-1.78c0.13,0,0.28,0.01,0.4,0.02l-0.36,1.79c-0.1-0.01-0.22-0.02-0.36-0.02c-1.3,0-2.13,1.32-2.43,2.95
				l-0.58,3.08H242.39z"/>
			<path fill="#2D4777" d="M248.22,52.07l0.9-4.72c0.2-1.08,0.31-2.25,0.39-2.93h1.59c-0.05,0.52-0.1,1.05-0.17,1.61h0.05
				c0.52-1.03,1.36-1.78,2.4-1.78c0.13,0,0.28,0.01,0.4,0.02l-0.36,1.79c-0.1-0.01-0.22-0.02-0.36-0.02c-1.3,0-2.13,1.32-2.43,2.95
				l-0.58,3.08H248.22z"/>
			<path fill="#2D4777" d="M260.01,51.63c-0.75,0.39-1.78,0.6-2.71,0.6c-2.12,0-3.13-1.3-3.13-3.17c0-2.31,1.7-4.82,4.33-4.82
				c1.51,0,2.48,0.87,2.48,2.15c0,1.97-2.06,2.6-5.02,2.53c-0.03,0.27,0.04,0.78,0.2,1.09c0.3,0.52,0.85,0.78,1.57,0.78
				c0.86,0,1.56-0.22,2.11-0.5L260.01,51.63z M258.26,45.62c-1.14,0-1.89,1.02-2.12,1.95c1.89,0.02,3.1-0.24,3.1-1.16
				C259.24,45.92,258.85,45.62,258.26,45.62z"/>
			<path fill="#2D4777" d="M265.85,42.32l-0.4,2.1h1.72l-0.28,1.41h-1.72l-0.6,3.1c-0.07,0.36-0.14,0.75-0.14,1.08
				c0,0.41,0.19,0.69,0.68,0.69c0.21,0,0.43-0.01,0.62-0.04l-0.17,1.44c-0.27,0.1-0.75,0.16-1.19,0.16c-1.27,0-1.82-0.69-1.82-1.57
				c0-0.43,0.05-0.85,0.16-1.43l0.66-3.41h-1.03l0.27-1.41h1.03l0.31-1.66L265.85,42.32z"/>
			<path fill="#2D4777" d="M273.48,51.63c-0.75,0.39-1.78,0.6-2.71,0.6c-2.12,0-3.13-1.3-3.13-3.17c0-2.31,1.7-4.82,4.33-4.82
				c1.51,0,2.48,0.87,2.48,2.15c0,1.97-2.06,2.6-5.02,2.53c-0.03,0.27,0.04,0.78,0.2,1.09c0.3,0.52,0.85,0.78,1.57,0.78
				c0.86,0,1.56-0.22,2.11-0.5L273.48,51.63z M271.73,45.62c-1.14,0-1.89,1.02-2.12,1.95c1.89,0.02,3.1-0.24,3.1-1.16
				C272.71,45.92,272.32,45.62,271.73,45.62z"/>
			<path fill="#2D4777" d="M275.39,52.07l0.9-4.72c0.2-1.08,0.31-2.25,0.39-2.93h1.59c-0.05,0.52-0.1,1.05-0.17,1.61h0.05
				c0.52-1.03,1.36-1.78,2.4-1.78c0.13,0,0.28,0.01,0.4,0.02l-0.36,1.79c-0.1-0.01-0.22-0.02-0.36-0.02c-1.3,0-2.13,1.32-2.43,2.95
				l-0.58,3.08H275.39z"/>
			<path fill="#2D4777" d="M288.92,47.42c0,2.6-1.81,4.83-4.43,4.83c-1.93,0-3.13-1.33-3.13-3.15c0-2.59,1.81-4.84,4.42-4.84
				C287.85,44.25,288.92,45.73,288.92,47.42z M283.26,49.04c0,1.05,0.56,1.79,1.49,1.79c1.37,0,2.28-1.89,2.28-3.41
				c0-0.79-0.35-1.76-1.46-1.76C284.11,45.66,283.26,47.61,283.26,49.04z"/>
			<path fill="#2D4777" d="M293.86,52.07l0.92-2.94h-1.29l0.2-1.18h1.47l0.64-2.03h-1.35l0.2-1.18h1.51l0.91-2.88h1.16l-0.9,2.88
				h1.4l0.91-2.88h1.17l-0.9,2.88h1.28l-0.2,1.18h-1.45l-0.63,2.03h1.33l-0.2,1.18h-1.52l-0.91,2.94h-1.19l0.92-2.94h-1.39
				l-0.91,2.94H293.86z M297.73,47.95l0.63-2.03h-1.39l-0.63,2.03H297.73z"/>
			<path fill="#2D4777" d="M306.07,43.62h-0.03l-1.89,0.88l-0.1-1.44l2.61-1.21h1.52l-1.93,10.22h-1.77L306.07,43.62z"/>
			<path fill="#2D4777" d="M319.74,51.63c-0.75,0.39-1.78,0.6-2.71,0.6c-2.12,0-3.13-1.3-3.13-3.17c0-2.31,1.7-4.82,4.33-4.82
				c1.51,0,2.48,0.87,2.48,2.15c0,1.97-2.06,2.6-5.02,2.53c-0.03,0.27,0.04,0.78,0.2,1.09c0.3,0.52,0.85,0.78,1.57,0.78
				c0.86,0,1.56-0.22,2.11-0.5L319.74,51.63z M317.99,45.62c-1.14,0-1.89,1.02-2.12,1.95c1.89,0.02,3.1-0.24,3.1-1.16
				C318.97,45.92,318.58,45.62,317.99,45.62z"/>
			<path fill="#2D4777" d="M321.65,52.07l0.99-5.28c0.18-0.92,0.29-1.71,0.39-2.37h1.63l-0.17,1.37h0.03
				c0.71-1.03,1.69-1.55,2.75-1.55c1.1,0,1.95,0.66,1.95,2.11c0,0.34-0.06,0.87-0.13,1.26l-0.85,4.45h-1.83l0.82-4.32
				c0.05-0.28,0.09-0.61,0.09-0.91c0-0.64-0.23-1.1-0.96-1.1c-0.83,0-1.89,1.01-2.22,2.79l-0.66,3.54H321.65z"/>
			<path fill="#2D4777" d="M342.89,52.07l0.7-4.98c0.16-1.08,0.39-2.58,0.65-3.89h-0.05c-0.55,1.24-1.17,2.61-1.75,3.73l-2.61,5.01
				h-1.42l-0.56-4.93c-0.12-1.19-0.22-2.55-0.28-3.81h-0.03c-0.27,1.21-0.59,2.81-0.85,3.89l-1.22,4.98h-1.7l2.7-10.59h2.41
				l0.56,4.95c0.08,0.95,0.2,2.05,0.21,3.05h0.05c0.38-1,0.89-2.11,1.34-3.03l2.56-4.96h2.45l-1.39,10.59H342.89z"/>
			<path fill="#2D4777" d="M352.96,51.63c-0.75,0.39-1.78,0.6-2.71,0.6c-2.12,0-3.13-1.3-3.13-3.17c0-2.31,1.7-4.82,4.33-4.82
				c1.51,0,2.48,0.87,2.48,2.15c0,1.97-2.06,2.6-5.02,2.53c-0.03,0.27,0.04,0.78,0.2,1.09c0.3,0.52,0.85,0.78,1.57,0.78
				c0.86,0,1.56-0.22,2.11-0.5L352.96,51.63z M351.21,45.62c-1.14,0-1.89,1.02-2.12,1.95c1.89,0.02,3.1-0.24,3.1-1.16
				C352.19,45.92,351.8,45.62,351.21,45.62z M354.09,41.17l-2.07,2.33h-1.38l1.51-2.33H354.09z"/>
			<path fill="#2D4777" d="M357.4,44.42l0.58,1.38c0.23,0.56,0.37,0.94,0.5,1.26h0.04c0.28-0.42,0.48-0.73,0.82-1.19l1.1-1.44h2.1
				l-3.23,3.72l1.79,3.93h-2l-0.61-1.45c-0.24-0.56-0.36-0.9-0.52-1.38h-0.04c-0.22,0.36-0.44,0.73-0.78,1.23l-1.2,1.59h-2.12
				l3.33-3.95l-1.79-3.7H357.4z"/>
			<path fill="#2D4777" d="M362.65,52.07l1.46-7.65h1.83l-1.46,7.65H362.65z M364.39,42.34c0-0.65,0.51-1.1,1.1-1.1
				c0.58,0,0.97,0.39,0.97,0.98c-0.01,0.67-0.51,1.1-1.13,1.1C364.78,43.31,364.39,42.92,364.39,42.34z"/>
			<path fill="#2D4777" d="M372.43,51.81c-0.44,0.22-1.22,0.43-2.19,0.43c-1.92,0-3.1-1.24-3.1-3.06c0-2.67,2.02-4.92,4.86-4.92
				c0.68,0,1.28,0.16,1.57,0.3l-0.47,1.42c-0.28-0.12-0.65-0.23-1.15-0.23c-1.77,0-2.89,1.63-2.89,3.23c0,1.14,0.66,1.79,1.68,1.79
				c0.71,0,1.24-0.19,1.63-0.37L372.43,51.81z"/>
			<path fill="#2D4777" d="M381.7,47.42c0,2.6-1.81,4.83-4.43,4.83c-1.93,0-3.13-1.33-3.13-3.15c0-2.59,1.81-4.84,4.42-4.84
				C380.62,44.25,381.7,45.73,381.7,47.42z M376.03,49.04c0,1.05,0.56,1.79,1.49,1.79c1.37,0,2.28-1.89,2.28-3.41
				c0-0.79-0.36-1.76-1.46-1.76C376.88,45.66,376.03,47.61,376.03,49.04z"/>
		</g>
	</g>
</g>
</svg>
