<?xml version="1.0" encoding="utf-8"?>
<!-- Generator: Adobe Illustrator 23.0.3, SVG Export Plug-In . SVG Version: 6.00 Build 0)  -->
<svg version="1.1" id="Capa_1" xmlns="http://www.w3.org/2000/svg" xmlns:xlink="http://www.w3.org/1999/xlink" x="0px" y="0px"
	 viewBox="0 0 399.6 56" style="enable-background:new 0 0 399.6 56;" xml:space="preserve">
<style type="text/css">
	.st0{fill:#FFFFFF;}
	.st1{fill:#2D4777;}
</style>
<g>
	<rect x="87.9" y="1.1" class="st0" width="311.3" height="33.3"/>
</g>
<g id="Capa_3">
	<g>
		<path class="st0" d="M70.9,8.2C69.2,4.6,72.7,0,72.7,0H52.7H39.8c-2.8,0-5,2.3-5,5.1l0,9.3c0,0-5.8,3.8-11.9,0s-16.6,0-16.6,0
			c-3.8,1.4-6.1,3.9-6.1,3.9L0,18.5l0.2,0.2c0,0,2.3,2.5,6.1,3.9c0,0,10.5,3.8,16.6,0c6.1-3.8,11.9,0,11.9,0l0,8.7c0,2.8,2.3,5,5,5
			l12.8,0h17.7c0,0,1.7-4.3,0.2-6.4c-1.9-2.7,0-6.5,0-6.5c2.7-3,0.2-5.3,0.2-5.3c-1.5-1.8,0.4-4.3,0.4-4.3
			C73.6,12,70.9,8.2,70.9,8.2z"/>
	</g>
</g>
<g id="Layer_1">
	<g>
		<g>
			<path class="st1" d="M70.9,8.2C69.2,4.6,72.7,0,72.7,0H52.7H39.8c-2.8,0-5,2.3-5,5.1l0,9.3c0,0-5.8,3.8-11.9,0s-16.6,0-16.6,0
				c-3.8,1.4-6.1,3.9-6.1,3.9L0,18.5l0.2,0.2c0,0,2.3,2.5,6.1,3.9c0,0,10.5,3.8,16.6,0c6.1-3.8,11.9,0,11.9,0l0,8.7c0,2.8,2.3,5,5,5
				l12.8,0h17.7c0,0,1.7-4.3,0.2-6.4c-1.9-2.7,0-6.5,0-6.5c2.7-3,0.2-5.3,0.2-5.3c-1.5-1.8,0.4-4.3,0.4-4.3
				C73.6,12,70.9,8.2,70.9,8.2z M34.8,22.1c0,0-5.8-3.8-11.9,0s-16.6,0-16.6,0c-1.7-0.7-2.9-1.6-2.9-1.6c1.8-1.7,0-4,0-4
				s1.2-0.9,2.9-1.6c0,0,10.5-3.8,16.6,0c6.1,3.8,11.9,0,11.9,0V22.1z M42.6,35.8h-2.3c-3.1,0-4.9-1.8-4.9-4.9V5.6
				c0-3,1.9-4.9,4.9-4.9h2.3V35.8z M52.7,35.8h-9.3V0.7h9.3V35.8z"/>
		</g>
		<g>
			<g>
				<polygon class="st1" points="299,18.2 302.3,18.2 300.7,14 				"/>
			</g>
			<g>
				<polygon class="st1" points="264.1,18.1 267.4,18.1 265.8,14 				"/>
			</g>
			<g>
				<path class="st1" d="M83.5,0c0,0-4.4,5.2-2,8.6c1.6,2.7-0.7,5.4-0.7,5.4c-1.7,1.6,0,3.7,0,3.7c2.2,2,0.6,4.6,0.6,4.6
					c-2.9,3.4-1.5,6.5-1.5,6.5c2,3.5,0,7.8,0,7.8h319.7V0H83.5z M107.1,26.5H91V7.3h15.7v4.4H96.2v2.6h9.7v4.4h-9.7l0,3.5h10.8V26.5
					z M124.1,26.5h-15V7.5h5.3v14.7h9.7C124.1,22.2,124.1,26.5,124.1,26.5z M153.9,23.9c-1,0.9-2.4,1.6-4.2,2.2
					c-1.6,0.5-3.2,0.8-4.8,0.8c-4.6,0-7.7-1.6-9.4-4.9c-0.8-1.6-1.2-3.3-1.2-5.1c0-4,1.8-7.1,5.4-8.8c1.4-0.6,3-1,5-1
					c5.1,0,8.3,2.1,9,6.5l-5.2,0.9c-0.4-1.9-1.5-2.9-3.8-2.9c-1.5,0-2.9,0.4-3.7,1.4c-0.7,0.9-1.2,1.9-1.2,3.8c0,2,0.4,3.2,1.2,4.1
					c1.1,1.4,2.5,1.6,3.5,1.6c1.7,0,3-0.5,4.1-1.2V20h-4.5v-4.4l9.8,0L153.9,23.9L153.9,23.9z M189.2,26.5l-1.9-4.1h-6.6l-1.7,4.1
					h-3.5l-6.2,0l-3-4.1c-0.9-1.2-1.4-1.9-1.5-2c-0.8-0.9-1-0.9-1.6-1.1c-0.4-0.1-1.6-0.1-1.6-0.1v7.5h-5.3V7.3h8.8
					c1.8,0,3.2,0.1,4,0.3c1.4,0.3,2.6,1,3.3,2c0.6,0.9,1,1.9,1.1,3.1c0.1,2.9-1.3,4.7-4.1,5.6c1,0.5,2.8,3.2,3.6,4.5l1.2,1.8
					l7.3-17.2h5.1l8.3,19.2L189.2,26.5L189.2,26.5z M212,26.5h-5l-6.7-10.1v10.1h-5V7.3h4.9l6.8,10.2V7.3h5V26.5z M239.7,11.7H234
					v14.8h-5.3V11.7H223V7.3h16.7V11.7z M270.9,26.5l-1.9-4.1h-6.6l-1.7,4.1h-4.1h-4.2H241V7.3h5.3v14.8h9.7l0,2.3l7.2-17.1h5.1
					l8.3,19.2L270.9,26.5L270.9,26.5z M283.8,19.8h-1.6v6.7h-5.3V7.3h2.9h3.8c2.7,0,4.4,0.1,5.2,0.3c1.4,0.4,2.5,1.1,3.3,2.2
					c0.7,1,1.1,2.3,1.1,3.7c0,2.3-0.9,4-2.6,5.1c-0.8,0.5-1.5,0.8-2.3,0.9C287.4,19.7,285.8,19.8,283.8,19.8z M305.8,26.6l-1.8-4.1
					h-6.6l-1.7,4.1H290l8.1-19.2h5.1l8.3,19.2H305.8z M327,26.5h-15V7.3h5.3v14.8h9.7L327,26.5L327,26.5z M344.5,26.5h-16.1V7.3
					h15.7v4.4h-10.5v2.6h9.7v4.4h-9.7l0,3.5h10.8L344.5,26.5L344.5,26.5z M359.6,26.5l-2.8-3.9c-0.9-1.2-1.3-1.8-1.4-1.9
					c-0.7-0.8-1.1-1.3-1.7-1.5c0,0-0.4-0.2-1.9-0.2v7.5h-1h-4.2V7.3h7.1h1.5c1.9,0,3.4,0.1,4.3,0.3c1.5,0.3,2.7,1.1,3.4,2.2
					c0.6,0.9,1,2,1,3.2c0,2.8-1.4,4.5-4.2,5.3l0.1,0c1.1,0.7,1.5,1.5,2.2,2.4c0.5,0.6,1,1.4,1.9,2.7l2.2,3.2H359.6z M380.8,24.1
					c-1.6,1.9-3.8,2.8-6.6,2.8c-2.8,0-5-0.9-6.6-2.7c-1.6-1.8-2.3-4.1-2.3-7.1c0-3.2,0.9-5.7,2.6-7.5c1.6-1.7,3.7-2.5,6.4-2.5
					c2.8,0,5.1,0.9,6.6,2.8c1.5,1.8,2.3,4.2,2.3,7.2C383.1,20,382.3,22.4,380.8,24.1z M393.5,33.4c-2.6,0-4.7-2.1-4.7-4.7
					c0-2.6,2.1-4.7,4.7-4.7c2.6,0,4.7,2.1,4.7,4.7C398.2,31.3,396.1,33.4,393.5,33.4z"/>
			</g>
			<g>
				<polygon class="st1" points="182.4,18.1 185.7,18.1 184.1,14 				"/>
			</g>
			<g>
				<path class="st1" d="M286.2,11.8c-0.3-0.1-1-0.1-2.1-0.1h-1.9v3.7h2.1c0.9,0,1.4,0,1.7-0.1c0.6-0.1,1.1-0.4,1.4-0.8
					c0.2-0.3,0.3-0.6,0.3-1C287.8,12.6,287.2,12,286.2,11.8z"/>
			</g>
			<g>
				<path class="st1" d="M356.9,11.8c-0.2,0-0.8,0-2,0h-3.2v3.1h3.1c1,0,1.6,0,1.7,0c0.7-0.1,1.2-0.3,1.5-0.6
					c0.2-0.2,0.3-0.6,0.3-0.9C358.3,12.4,357.8,11.9,356.9,11.8z"/>
			</g>
			<g>
				<path class="st1" d="M166.7,11.8c-0.2,0-0.9,0-2,0h-3.2v3.2h3.1c1,0,1.6,0,1.7,0c0.7-0.1,1.2-0.3,1.5-0.7
					c0.2-0.2,0.3-0.6,0.3-0.9C168.1,12.4,167.6,11.9,166.7,11.8z"/>
			</g>
			<g>
				<path class="st1" d="M394.6,27.5c0-0.3-0.2-0.5-0.5-0.6c-0.1,0-0.3,0-0.8,0h-0.8v1.2h0.8c0.4,0,0.6,0,0.6,0
					c0.3,0,0.5-0.1,0.6-0.2C394.5,27.8,394.6,27.7,394.6,27.5z"/>
			</g>
			<g>
				<path class="st1" d="M393.5,24.8c-2.1,0-3.9,1.7-3.9,3.9s1.7,3.8,3.9,3.8c2.1,0,3.9-1.7,3.9-3.9
					C397.4,26.5,395.6,24.8,393.5,24.8z M394.8,30.9l-0.7-1c-0.2-0.3-0.4-0.5-0.4-0.5c-0.2-0.2-0.3-0.4-0.5-0.4c-0.1,0-0.3,0-0.5,0
					h-0.2v2h-1v-4.7h2.2c0.5,0,0.8,0,1,0.1c0.4,0.1,0.6,0.2,0.8,0.5c0.1,0.2,0.2,0.5,0.2,0.7c0,0.8-0.5,1.2-1.4,1.3
					c0.3,0.1,0.5,0.3,0.7,0.5c0.1,0.1,0.3,0.3,0.5,0.7l0.6,0.9L394.8,30.9L394.8,30.9z"/>
			</g>
			<g>
				<path class="st1" d="M374.2,11.5c-1.4,0-2.4,0.6-3.1,1.6c-0.6,0.9-0.9,2.2-0.9,3.8c0,1.6,0.3,2.8,0.9,3.8
					c0.7,1.1,1.8,1.7,3.1,1.7c1.4,0,2.4-0.6,3.1-1.7c0.6-1,0.9-2.2,0.9-3.8c0-1.6-0.3-2.9-0.9-3.8C376.6,12.1,375.5,11.5,374.2,11.5
					z"/>
			</g>
		</g>
	</g>
	<g>
		<g>
			<path class="st0" d="M144.3,46.3H140l-0.7,3.6h4.8l-0.3,1.8h-6.9l2.3-12h6.6l-0.3,1.8h-4.6l-0.6,3.1h4.3L144.3,46.3z"/>
			<path class="st0" d="M146,51.7l2.4-12.6h2.1l-2.4,12.6H146z"/>
			<path class="st0" d="M153.9,55.2l1.7-8.9c0.2-1,0.4-2.3,0.5-3.2h1.9l-0.2,1.4h0c0.7-1,1.8-1.6,2.9-1.6c1.9,0,2.7,1.5,2.7,3.2
				c0,3-2.1,5.8-5,5.8c-0.8,0-1.4-0.2-1.7-0.4h0l-0.7,3.7C155.9,55.2,153.9,55.2,153.9,55.2z M157,49.8c0.3,0.3,0.8,0.4,1.4,0.4
				c1.6,0,2.9-2.1,2.9-4.1c0-0.8-0.3-1.7-1.4-1.7c-1.1,0-2.2,1.2-2.6,3.2L157,49.8z"/>
			<path class="st0" d="M173.5,46.4c0,2.9-2,5.5-5,5.5c-2.2,0-3.5-1.5-3.5-3.6c0-2.9,2-5.5,5-5.5C172.3,42.8,173.5,44.5,173.5,46.4z
				 M167.1,48.2c0,1.2,0.6,2,1.7,2c1.5,0,2.6-2.1,2.6-3.9c0-0.9-0.4-2-1.6-2C168.1,44.4,167.1,46.6,167.1,48.2z"/>
			<path class="st0" d="M174.8,51.7l1-5.3c0.2-1.2,0.4-2.5,0.4-3.3h1.8c-0.1,0.6-0.1,1.2-0.2,1.8h0.1c0.6-1.2,1.5-2,2.7-2
				c0.1,0,0.3,0,0.5,0l-0.4,2c-0.1,0-0.2,0-0.4,0c-1.5,0-2.4,1.5-2.7,3.3l-0.7,3.5H174.8z"/>
			<path class="st0" d="M186.3,40.7l-0.5,2.4h1.9l-0.3,1.6h-1.9l-0.7,3.5c-0.1,0.4-0.2,0.8-0.2,1.2c0,0.5,0.2,0.8,0.8,0.8
				c0.2,0,0.5,0,0.7,0l-0.2,1.6c-0.3,0.1-0.8,0.2-1.3,0.2c-1.4,0-2.1-0.8-2.1-1.8c0-0.5,0.1-1,0.2-1.6l0.7-3.9h-1.2l0.3-1.6h1.2
				l0.3-1.9L186.3,40.7z"/>
			<path class="st0" d="M193.9,51.7c0-0.5,0.1-1.2,0.1-1.9h0c-0.9,1.6-2,2.1-3.1,2.1c-1.5,0-2.6-1.2-2.6-2.9c0-3,2.1-6.1,6.1-6.1
				c0.9,0,2,0.2,2.6,0.4l-0.9,4.5c-0.2,1.3-0.4,2.9-0.3,3.9C195.8,51.7,193.9,51.7,193.9,51.7z M194.8,44.5
				c-0.2-0.1-0.5-0.1-0.8-0.1c-1.9,0-3.4,2.2-3.4,4.1c0,0.9,0.3,1.6,1.2,1.6c1,0,2.1-1.2,2.6-3.4L194.8,44.5z"/>
			<path class="st0" d="M198.3,51.7l2.4-12.6h2.1l-2.4,12.6H198.3z"/>
			<path class="st0" d="M209.1,39.7h6.6l-0.3,1.8h-4.5l-0.6,3.4h4.2l-0.3,1.8h-4.2l-1,5.1h-2.1L209.1,39.7z"/>
			<path class="st0" d="M222.3,51.2c-0.8,0.4-2,0.7-3.1,0.7c-2.4,0-3.5-1.5-3.5-3.6c0-2.6,1.9-5.4,4.9-5.4c1.7,0,2.8,1,2.8,2.4
				c0,2.2-2.3,2.9-5.7,2.9c0,0.3,0,0.9,0.2,1.2c0.3,0.6,1,0.9,1.8,0.9c1,0,1.8-0.2,2.4-0.6L222.3,51.2z M220.3,44.4
				c-1.3,0-2.1,1.2-2.4,2.2c2.1,0,3.5-0.3,3.5-1.3C221.4,44.7,220.9,44.4,220.3,44.4z"/>
			<path class="st0" d="M224.4,51.7l1-5.3c0.2-1.2,0.4-2.5,0.4-3.3h1.8c-0.1,0.6-0.1,1.2-0.2,1.8h0.1c0.6-1.2,1.5-2,2.7-2
				c0.1,0,0.3,0,0.5,0l-0.4,2c-0.1,0-0.2,0-0.4,0c-1.5,0-2.4,1.5-2.7,3.3l-0.7,3.5H224.4z"/>
			<path class="st0" d="M231,51.7l1-5.3c0.2-1.2,0.3-2.5,0.4-3.3h1.8c-0.1,0.6-0.1,1.2-0.2,1.8h0.1c0.6-1.2,1.5-2,2.7-2
				c0.1,0,0.3,0,0.5,0l-0.4,2c-0.1,0-0.2,0-0.4,0c-1.5,0-2.4,1.5-2.7,3.3l-0.7,3.5H231z"/>
			<path class="st0" d="M244.3,51.2c-0.8,0.4-2,0.7-3.1,0.7c-2.4,0-3.5-1.5-3.5-3.6c0-2.6,1.9-5.4,4.9-5.4c1.7,0,2.8,1,2.8,2.4
				c0,2.2-2.3,2.9-5.7,2.9c0,0.3,0,0.9,0.2,1.2c0.3,0.6,1,0.9,1.8,0.9c1,0,1.8-0.2,2.4-0.6L244.3,51.2z M242.3,44.4
				c-1.3,0-2.1,1.2-2.4,2.2c2.1,0,3.5-0.3,3.5-1.3C243.4,44.7,243,44.4,242.3,44.4z"/>
			<path class="st0" d="M250.9,40.7l-0.5,2.4h1.9l-0.3,1.6h-1.9l-0.7,3.5c-0.1,0.4-0.2,0.8-0.2,1.2c0,0.5,0.2,0.8,0.8,0.8
				c0.2,0,0.5,0,0.7,0l-0.2,1.6c-0.3,0.1-0.8,0.2-1.3,0.2c-1.4,0-2.1-0.8-2.1-1.8c0-0.5,0.1-1,0.2-1.6l0.7-3.9h-1.2l0.3-1.6h1.2
				l0.3-1.9L250.9,40.7z"/>
			<path class="st0" d="M259.5,51.2c-0.8,0.4-2,0.7-3.1,0.7c-2.4,0-3.5-1.5-3.5-3.6c0-2.6,1.9-5.4,4.9-5.4c1.7,0,2.8,1,2.8,2.4
				c0,2.2-2.3,2.9-5.7,2.9c0,0.3,0,0.9,0.2,1.2c0.3,0.6,1,0.9,1.8,0.9c1,0,1.8-0.2,2.4-0.6L259.5,51.2z M257.5,44.4
				c-1.3,0-2.1,1.2-2.4,2.2c2.1,0,3.5-0.3,3.5-1.3C258.6,44.7,258.2,44.4,257.5,44.4z"/>
			<path class="st0" d="M261.7,51.7l1-5.3c0.2-1.2,0.4-2.5,0.4-3.3h1.8c-0.1,0.6-0.1,1.2-0.2,1.8h0.1c0.6-1.2,1.5-2,2.7-2
				c0.1,0,0.3,0,0.5,0l-0.4,2c-0.1,0-0.2,0-0.4,0c-1.5,0-2.4,1.5-2.7,3.3l-0.7,3.5H261.7z"/>
			<path class="st0" d="M276.9,46.4c0,2.9-2,5.5-5,5.5c-2.2,0-3.5-1.5-3.5-3.6c0-2.9,2-5.5,5-5.5C275.7,42.8,276.9,44.5,276.9,46.4z
				 M270.6,48.2c0,1.2,0.6,2,1.7,2c1.5,0,2.6-2.1,2.6-3.9c0-0.9-0.4-2-1.6-2C271.5,44.4,270.6,46.6,270.6,48.2z"/>
			<path class="st0" d="M282.5,51.7l1-3.3h-1.5l0.2-1.3h1.7l0.7-2.3h-1.5l0.2-1.3h1.7l1-3.3h1.3l-1,3.3h1.6l1-3.3h1.3l-1,3.3h1.4
				l-0.2,1.3h-1.6l-0.7,2.3h1.5l-0.2,1.3h-1.7l-1,3.3h-1.3l1-3.3h-1.6l-1,3.3H282.5z M286.9,47l0.7-2.3H286l-0.7,2.3H286.9z"/>
			<path class="st0" d="M296.3,42.1L296.3,42.1l-2.2,1l-0.1-1.6l2.9-1.4h1.7l-2.2,11.5h-2L296.3,42.1z"/>
			<path class="st0" d="M311.7,51.2c-0.8,0.4-2,0.7-3.1,0.7c-2.4,0-3.5-1.5-3.5-3.6c0-2.6,1.9-5.4,4.9-5.4c1.7,0,2.8,1,2.8,2.4
				c0,2.2-2.3,2.9-5.7,2.9c0,0.3,0,0.9,0.2,1.2c0.3,0.6,1,0.9,1.8,0.9c1,0,1.8-0.2,2.4-0.6L311.7,51.2z M309.8,44.4
				c-1.3,0-2.1,1.2-2.4,2.2c2.1,0,3.5-0.3,3.5-1.3C310.9,44.7,310.4,44.4,309.8,44.4z"/>
			<path class="st0" d="M313.9,51.7l1.1-6c0.2-1,0.3-1.9,0.4-2.7h1.8l-0.2,1.5h0c0.8-1.2,1.9-1.8,3.1-1.8c1.2,0,2.2,0.7,2.2,2.4
				c0,0.4-0.1,1-0.1,1.4l-1,5h-2.1l0.9-4.9c0.1-0.3,0.1-0.7,0.1-1c0-0.7-0.3-1.2-1.1-1.2c-0.9,0-2.1,1.1-2.5,3.2l-0.7,4L313.9,51.7
				L313.9,51.7z"/>
			<path class="st0" d="M337.9,51.7l0.8-5.6c0.2-1.2,0.4-2.9,0.7-4.4h-0.1c-0.6,1.4-1.3,2.9-2,4.2l-2.9,5.7h-1.6l-0.6-5.6
				c-0.1-1.3-0.2-2.9-0.3-4.3h0c-0.3,1.4-0.7,3.2-1,4.4l-1.4,5.6h-1.9l3-12h2.7l0.6,5.6c0.1,1.1,0.2,2.3,0.2,3.4h0.1
				c0.4-1.1,1-2.4,1.5-3.4l2.9-5.6h2.8l-1.6,12L337.9,51.7L337.9,51.7z"/>
			<path class="st0" d="M349.3,51.2c-0.8,0.4-2,0.7-3.1,0.7c-2.4,0-3.5-1.5-3.5-3.6c0-2.6,1.9-5.4,4.9-5.4c1.7,0,2.8,1,2.8,2.4
				c0,2.2-2.3,2.9-5.7,2.9c0,0.3,0,0.9,0.2,1.2c0.3,0.6,1,0.9,1.8,0.9c1,0,1.8-0.2,2.4-0.6L349.3,51.2z M347.3,44.4
				c-1.3,0-2.1,1.2-2.4,2.2c2.1,0,3.5-0.3,3.5-1.3C348.4,44.7,347.9,44.4,347.3,44.4z M350.5,39.4l-2.3,2.6h-1.6l1.7-2.6H350.5z"/>
			<path class="st0" d="M354.3,43l0.7,1.6c0.3,0.6,0.4,1.1,0.6,1.4h0c0.3-0.5,0.5-0.8,0.9-1.3l1.2-1.6h2.4l-3.6,4.2l2,4.4h-2.3
				l-0.7-1.6c-0.3-0.6-0.4-1-0.6-1.6h0c-0.2,0.4-0.5,0.8-0.9,1.4l-1.4,1.8h-2.4l3.8-4.5l-2-4.2H354.3z"/>
			<path class="st0" d="M360.2,51.7l1.6-8.6h2.1l-1.6,8.6H360.2z M362.2,40.7c0-0.7,0.6-1.2,1.2-1.2c0.7,0,1.1,0.4,1.1,1.1
				c0,0.8-0.6,1.2-1.3,1.2C362.6,41.8,362.2,41.3,362.2,40.7z"/>
			<path class="st0" d="M371.2,51.4c-0.5,0.2-1.4,0.5-2.5,0.5c-2.2,0-3.5-1.4-3.5-3.5c0-3,2.3-5.6,5.5-5.6c0.8,0,1.4,0.2,1.8,0.3
				l-0.5,1.6c-0.3-0.1-0.7-0.3-1.3-0.3c-2,0-3.3,1.8-3.3,3.6c0,1.3,0.7,2,1.9,2c0.8,0,1.4-0.2,1.8-0.4L371.2,51.4z"/>
			<path class="st0" d="M381.7,46.4c0,2.9-2,5.5-5,5.5c-2.2,0-3.5-1.5-3.5-3.6c0-2.9,2-5.5,5-5.5C380.5,42.8,381.7,44.5,381.7,46.4z
				 M375.3,48.2c0,1.2,0.6,2,1.7,2c1.5,0,2.6-2.1,2.6-3.9c0-0.9-0.4-2-1.6-2C376.3,44.4,375.3,46.6,375.3,48.2z"/>
		</g>
	</g>
</g>
</svg>
