<?xml version="1.0" encoding="utf-8"?>
<!-- Generator: Adobe Illustrator 23.0.3, SVG Export Plug-In . SVG Version: 6.00 Build 0)  -->
<svg version="1.1" id="Capa_6" xmlns="http://www.w3.org/2000/svg" xmlns:xlink="http://www.w3.org/1999/xlink" x="0px" y="0px"
	 width="1394.2px" height="465.5px" viewBox="0 0 1394.2 465.5" style="enable-background:new 0 0 1394.2 465.5;"
	 xml:space="preserve">
<style type="text/css">
	.Sombra_x0020_paralela{fill:none;}
	.Esquinas_x0020_redondeadas_x0020_2_x0020_pt_x002E_{fill:#FFFFFF;stroke:#000000;stroke-miterlimit:10;}
	.Reflejo_x0020_vivo_x0020_X{fill:none;}
	.Bisel_x0020_suave{fill:url(#SVGID_1_);}
	.Atardecer{fill:#FFFFFF;}
	.Follaje_GS{fill:#F8E000;}
	.Pompadour_GS{fill-rule:evenodd;clip-rule:evenodd;fill:#80AFDD;}
	.st0{fill:#BF0811;}
	.st1{fill:#5B5B5F;}
	.st2{fill-rule:evenodd;clip-rule:evenodd;fill:url(#SVGID_2_);}
	.st3{fill-rule:evenodd;clip-rule:evenodd;fill:#E6B54A;}
	.st4{fill-rule:evenodd;clip-rule:evenodd;fill:#BF0811;}
	.st5{fill:url(#SVGID_3_);}
	.st6{fill-rule:evenodd;clip-rule:evenodd;fill:#70A83B;}
</style>
<linearGradient id="SVGID_1_" gradientUnits="userSpaceOnUse" x1="-155.357" y1="-553.8678" x2="-154.6499" y2="-553.1607">
	<stop  offset="0" style="stop-color:#E8E9EC"/>
	<stop  offset="0.1738" style="stop-color:#E4E5E8"/>
	<stop  offset="0.352" style="stop-color:#D6D7DB"/>
	<stop  offset="0.5323" style="stop-color:#BFBFC2"/>
	<stop  offset="0.7139" style="stop-color:#A2A0A1"/>
	<stop  offset="0.8949" style="stop-color:#7F8080"/>
	<stop  offset="1" style="stop-color:#6A6D6D"/>
</linearGradient>
<g>
	<path class="st0" d="M165,424.7h-51l-51-73.8H57v73.8H14V237.8h51.2c23.9,0,42.5,4.9,55.9,14.7c13.4,9.8,20,23.6,20,41.3
		c0,21.8-11.5,38.5-34.5,50.2L165,424.7z M102.4,297.3c0-9.4-3-16.1-9-20c-6-4-16.2-6-30.5-6H57v57.3c15.9-0.2,27.5-2.8,34.6-7.8
		C98.8,315.7,102.4,307.9,102.4,297.3z"/>
	<path class="st0" d="M271.1,424.7H161.3V237.8h109.9v38.2h-65.3v34.5H260v38.2h-54.1v37.7h65.3V424.7z"/>
	<path class="st0" d="M496.2,424.7h-41.7l-17-86l-51,92.4h-2.7l-54.4-94.2l-16.2,87.8h-39.8l39-193.2h2.7l71.4,123.4l66.9-123.4h3.7
		L496.2,424.7z"/>
	<path class="st0" d="M674.5,424.7h-46.4l-11.7-27.6h-77.8L527,424.7h-44.1l94.7-193.2h3.7L674.5,424.7z M603.2,365.8l-25.7-60.5
		l-25.5,60.5H603.2z"/>
	<path class="st0" d="M795.8,274.5h-59.7v150.2h-44.6V274.5h-59.7v-36.6h164V274.5z"/>
	<path class="st0" d="M914.5,424.7H804.6V237.8h109.9v38.2h-65.3v34.5h54.1v38.2h-54.1v37.7h65.3V424.7z"/>
	<path class="st0" d="M972.8,231.5c-0.5,17-1.4,28.9-2.7,35.8l-19.1,101.1l-12.7-2.1l-14.6-104c-0.7-5.1-1.1-11.1-1.1-18v-6.4
		L972.8,231.5z M969.4,408c0,6.2-2.2,11.5-6.6,15.8c-4.4,4.3-9.7,6.5-15.9,6.5c-6,0-11.2-2.2-15.5-6.5c-4.3-4.3-6.5-9.6-6.5-15.8
		c0-6.2,2.2-11.5,6.5-15.8c4.3-4.3,9.5-6.5,15.5-6.5c6.2,0,11.5,2.2,15.9,6.5C967.2,396.5,969.4,401.8,969.4,408z"/>
</g>
<g>
	<g>
		<path d="M373.9,214.2H350v-42.7h-39.3v42.7h-23.9V114h23.9v37H350v-37h23.9V214.2z"/>
		<path d="M476.7,164.1c0,15.1-4.8,27.8-14.4,38.1c-9.6,10.3-21.4,15.4-35.4,15.4c-14,0-25.9-5.1-35.4-15.4
			c-9.6-10.3-14.4-23-14.4-38.1s4.8-27.8,14.4-38.1c9.6-10.3,21.4-15.4,35.4-15.4c14,0,25.9,5.1,35.4,15.4
			C471.9,136.3,476.7,149,476.7,164.1z M452.2,164.1c0-9.2-2.3-16.6-7-22.3c-4.6-5.6-10.8-8.5-18.4-8.5c-7.6,0-13.7,2.8-18.4,8.5
			c-4.6,5.6-7,13.1-7,22.3c0,9.2,2.3,16.6,7,22.3c4.6,5.6,10.8,8.5,18.4,8.5c7.6,0,13.7-2.8,18.4-8.5
			C449.9,180.7,452.2,173.3,452.2,164.1z"/>
		<path d="M560.8,214.2h-27.3l-27.3-39.6h-3.3v39.6h-23.1V114h27.5c12.8,0,22.8,2.6,30,7.9c7.2,5.3,10.7,12.6,10.7,22.1
			c0,11.7-6.2,20.6-18.5,26.9L560.8,214.2z M527.2,145.9c0-5-1.6-8.6-4.8-10.7c-3.2-2.1-8.7-3.2-16.4-3.2h-3.1v30.7
			c8.5-0.1,14.7-1.5,18.6-4.2C525.3,155.8,527.2,151.6,527.2,145.9z"/>
		<path d="M646.2,214.2h-24.9l-6.3-14.8h-41.7l-6.3,14.8h-23.6l50.8-103.6h2L646.2,214.2z M607.9,182.6l-13.8-32.4l-13.7,32.4H607.9
			z"/>
	</g>
</g>
<g>
	<g>
		<path class="st1" d="M710.4,204.7c-7.1,6.4-17.2,9.5-30.8,9.5H663v-66.8h13.9c10.9,0,17.9,1.1,24.9,4
			c11.8,4.9,18.8,15.8,18.8,29.2C720.5,190.2,716.9,198.9,710.4,204.7z M679.4,157.8H675v45.8h6c16.9,0,27.5-8.9,27.5-23.1
			C708.5,166.3,697.8,157.8,679.4,157.8z"/>
		<path class="st1" d="M723.5,214.2v-66.8h38.9v10.2h-26.9v16.5h22.8v10.2h-22.8v19.5H763v10.2H723.5z"/>
		<path class="st1" d="M767.1,214.2v-66.8h12v56.4h29.8v10.4H767.1z"/>
	</g>
</g>
<g>
	<g>
		<path class="st1" d="M154.3,214.2v-66.8h12v56.4H196v10.4H154.3z"/>
		<path class="st1" d="M254.3,214.2l-5.4-12H216l-5.6,12h-12.1l34.3-69.1h1.2l32.9,69.1H254.3z M232.6,165.9L220.2,193h24.6
			L232.6,165.9z"/>
	</g>
</g>
<g>
	<linearGradient id="SVGID_2_" gradientUnits="userSpaceOnUse" x1="1168.5806" y1="427.913" x2="1168.5806" y2="101.5502">
		<stop  offset="0.1463" style="stop-color:#BF0811"/>
		<stop  offset="0.1559" style="stop-color:#C01D15"/>
		<stop  offset="0.2083" style="stop-color:#C33A26"/>
		<stop  offset="0.2624" style="stop-color:#C5452F"/>
		<stop  offset="0.3199" style="stop-color:#C64832"/>
		<stop  offset="0.6685" style="stop-color:#E9BC2F"/>
		<stop  offset="0.8876" style="stop-color:#77AA3A"/>
		<stop  offset="1" style="stop-color:#349742"/>
	</linearGradient>
	<path class="st2" d="M1082.4,406.5c1-0.7,1.6-2.4,1.6-3.7c0.1-9.5,0.1-40.2,0-49.7c0-19.6,6.7-36.7,19-51.7
		c11.4-13.9,25.5-24.5,40.9-33.4c1.2-0.7,2.4-1.5,3.7-2.3c-0.4-0.4-0.5-0.6-0.7-0.7c-0.8-0.5-1.7-1-2.5-1.4
		c-13.5-7.7-26-16.7-36.7-28.1c-15.6-16.7-24.2-36.1-23.8-59.2c0.2-8.9,0.1-37.5,0-46.3c0-1.3-0.8-3.1-1.9-3.9
		c-14.1-10.5-14.2-9,0.4-19c3.7-2.5,8.3-3.7,12.4-5.5c49.1,0,98.3,0,147.4,0c1.4,0.5,2.8,0.9,4.2,1.3c9.6,3.1,16.6,9,18.6,19.2
		c2,10-2.2-1.9-10.3,4.1c-0.9,0.7-1.6,2.4-1.6,3.7c-0.1,9.5-0.1,38.8,0,48.3c0,19.6-6.7,36.7-19,51.7
		c-11.4,13.9-25.5,24.5-40.9,33.4c-1.2,0.7-2.4,1.5-4,2.5c2.7,1.6,5,2.9,7.3,4.3c14.2,8.5,27.1,18.5,37.6,31.4
		c10.5,13,17.6,27.5,18.5,44.4c0.6,11.9,0.3,45.1,0.6,57c0,1.3,0.8,3.1,1.9,3.9c7.2,5.4-39.7,21.9-86.5,21.2
		C1123.5,427.2,1078.4,409.4,1082.4,406.5z M1168.5,112c-14.4,0-28.8,0-43.2,0c-6.6,0-9.6,2.9-9.6,9.5c0,7.7,0.1,48.9,0,56.6
		c-0.1,10.4,3.2,19.7,9.2,28c10.4,14.5,24.6,24.3,40.1,32.6c2.6,1.4,5.4,1.1,8-0.3c12.5-6.7,24-14.7,33.7-25.2
		c9.9-10.7,15.6-23,14.9-37.9c-0.3-6.7-0.1-47-0.1-53.7c0-6.9-2.8-9.6-9.7-9.7C1197.4,112,1182.9,112,1168.5,112z M1168.8,416.3
		c14.5,0,29,0,43.6,0c6.2,0,9.2-3,9.2-9.2c0.1-7.9,0-46.4,0-54.3c0.1-10.3-3.3-19.5-9.2-27.7c-10.4-14.4-24.6-24.3-40.1-32.6
		c-2.6-1.4-5.4-1-8,0.3c-12.4,6.7-23.8,14.6-33.4,25c-10,10.7-15.8,23.1-15.1,38.1c0.3,6.7,0.1,44,0.1,50.7c0,6.9,2.8,9.6,9.8,9.6
		C1139.9,416.3,1154.3,416.3,1168.8,416.3z"/>
	<path class="st3" d="M1143.3,191.3c16.9,0,33.7,0,50.6,0c0.9,6.7-0.3,12.6-4.3,18c-5.3,7.1-12.2,12.5-19.6,17.2
		c-0.6,0.4-1.9,0.5-2.5,0.1c-8.5-5.4-16.5-11.5-21.8-20.4C1143,201.7,1142.7,196.6,1143.3,191.3z"/>
	<path class="st4" d="M1204.8,391.2c-13,4-24.2,5-36.3,5c-12,0-22.1-1-36.1-5c-1.3-9.3,0.1-39,5.8-46.6
		c7.9-10.7,18.2-18.6,29.2-25.7c0.6-0.4,1.7-0.5,2.2-0.2c11.8,7.6,23.1,15.9,30.8,28C1205.1,354,1206,381.3,1204.8,391.2z"/>
</g>
<linearGradient id="SVGID_3_" gradientUnits="userSpaceOnUse" x1="1040.2981" y1="-49.3728" x2="1269.3174" y2="331.4946" gradientTransform="matrix(0.9968 7.940000e-02 -7.940000e-02 0.9968 40.7428 -5.1905)">
	<stop  offset="0.1366" style="stop-color:#70A83B"/>
	<stop  offset="0.1605" style="stop-color:#7EAC38"/>
	<stop  offset="0.272" style="stop-color:#B3BC2A"/>
	<stop  offset="0.3646" style="stop-color:#D6C718"/>
	<stop  offset="0.4335" style="stop-color:#E9CA00"/>
	<stop  offset="0.4711" style="stop-color:#EFCB00"/>
	<stop  offset="0.7169" style="stop-color:#BF0811"/>
	<stop  offset="1" style="stop-color:#BF0811"/>
</linearGradient>
<path class="st5" d="M1078.3,438.2c21.8,9.4,45.5,15.5,70.5,17.4c122.3,9.7,229.4-81.5,239.1-203.8
	c9.7-122.3-81.5-229.4-203.8-239.1C1061.7,3,954.7,94.2,945,216.6l6.1,0.2l1.2-15.4c16.6-113.3,119.8-187,231-178.1
	c111.2,8.9,195,95.6,186.2,206.8c-8.9,111.2-106.2,194.2-217.4,185.3c-20.7-1.6-40.4-6.3-58.7-13.6l-3.7-1.5
	c-2.5-1.5-5.5-2.5-8.6-2.8c-10.8-0.9-20.3,7.2-21.2,18c-0.7,8.7,4.4,16.5,12,19.7L1078.3,438.2z"/>
<path class="st6" d="M1249.1,137.5c-23.5-14.2-51-22.4-80.4-22.4c-29.6,0-57.2,8.3-80.7,22.6l-0.4,0.1c-2.8,1.7-6,2.7-9.5,2.7
	c-10.1,0-18.3-8.2-18.3-18.3c0-6.8,3.7-12.7,9.1-15.8l0.2-0.2c29-17.6,63.1-27.7,99.5-27.7c36.7,0,71,10.3,100.2,28.2l0.2,0.2
	c5.1,3.2,8.5,8.9,8.5,15.5c0,10.1-8.2,18.3-18.3,18.3c-3.5,0-6.9-1-9.7-2.8L1249.1,137.5z"/>
</svg>
