<svg id="Capa_2" data-name="Capa 2" xmlns="http://www.w3.org/2000/svg" viewBox="0 0 423.91 173.09"><title>Logo_Cotiza123</title><path d="M150.88,6.64a6.65,6.65,0,0,1-6.64,6.64H120.75a6.64,6.64,0,0,1-6.64-6.64h0A6.64,6.64,0,0,1,120.75,0h23.49a6.64,6.64,0,0,1,6.64,6.64Z" style="fill:#12669f"/><path d="M169.32,39.55A13.3,13.3,0,0,1,156,52.84H109a13.29,13.29,0,0,1-13.3-13.29h0A13.29,13.29,0,0,1,109,26.25H156a13.3,13.3,0,0,1,13.3,13.3Z" style="fill:#12669f"/><rect x="125.02" y="15.81" width="14.95" height="7.58" style="fill:#002075"/><path d="M85.05,67.66V54.75A10.24,10.24,0,0,1,92.25,45a15.71,15.71,0,0,1-1.15-4.08,15,15,0,0,1,.37-4.16h-2.2a12,12,0,0,0-12,12V67.66Zm-7.78,74.65v18.78a12,12,0,0,0,12,12h89.18a12,12,0,0,0,12-12V48.73a12,12,0,0,0-12-12h-5.16s.88,5.07-.86,7.78a10.23,10.23,0,0,1,10.24,10.24V155.07a10.23,10.23,0,0,1-10.24,10.24H95.3a10.24,10.24,0,0,1-10.25-10.24V142.31Z" style="fill:#002075"/><path d="M129.65,105.63,165.1,84.74a3.31,3.31,0,0,1,3-.22A3.21,3.21,0,0,1,169.93,88a2.55,2.55,0,0,1-1,1.7l-38.75,30s-2.36,2.2-4.56,0-15.31-18.84-15.31-18.84a3,3,0,0,1-.07-3.92s1.82-2.15,4.83-.29Z" style="fill:#d78a2e"/><path d="M137.6,62.73a5.17,5.17,0,1,1-5.16-5.17A5.16,5.16,0,0,1,137.6,62.73Z" style="fill:#211915"/><path d="M137.6,154.28a5.17,5.17,0,1,1-5.16-5.16A5.17,5.17,0,0,1,137.6,154.28Z" style="fill:#211915"/><path d="M176.29,105.21a5.17,5.17,0,1,1-5.17-5.16A5.16,5.16,0,0,1,176.29,105.21Z" style="fill:#211915"/><path d="M228.77,149.81v-5.07a38.56,38.56,0,0,1,.54-6.58,17.07,17.07,0,0,1,1.36-4.45,7.24,7.24,0,0,1,2.15-2.66,7.58,7.58,0,0,1,2.72-1.34,13.8,13.8,0,0,1,3.28-.35c3.27,0,5.61,1.16,7,3.47s2.14,5.95,2.14,10.93c0,1.52,0,2.77-.06,3.74H233.36v5.56a41,41,0,0,0,.34,5.88,9,9,0,0,0,1.11,3.45,4,4,0,0,0,1.68,1.55,5.83,5.83,0,0,0,2.3.39,4,4,0,0,0,3.42-2.05c.92-1.36,1.39-3.65,1.42-6.85h4.25a35.57,35.57,0,0,1-.49,3.68,17.07,17.07,0,0,1-.95,3.22,9.34,9.34,0,0,1-1.61,2.67,7.11,7.11,0,0,1-2.48,1.73,8.52,8.52,0,0,1-3.49.67,10.21,10.21,0,0,1-6-1.53c-1.42-1-2.47-2.81-3.14-5.35A42.75,42.75,0,0,1,228.77,149.81Zm4.62-4.56h10.08q0-1.22,0-2.46c0-.83,0-1.66,0-2.51s-.09-1.64-.16-2.41a11.44,11.44,0,0,0-.41-2.14,7.82,7.82,0,0,0-.76-1.72,3.23,3.23,0,0,0-1.25-1.15,3.71,3.71,0,0,0-1.82-.43,5.49,5.49,0,0,0-2.75.61,5,5,0,0,0-1.67,1.43,6.32,6.32,0,0,0-.87,2.76,32.75,32.75,0,0,0-.32,3.42C233.4,141.63,233.39,143.17,233.39,145.25Z" style="fill:#12669f"/><path d="M254.32,166.58v-36.4h4.56v3.44a9.52,9.52,0,0,1,3.49-3.19,9,9,0,0,1,4.23-1.07,6.25,6.25,0,0,1,4.75,2.27,9.11,9.11,0,0,1,2,6.36v28.59h-4.62V137.9a5.94,5.94,0,0,0-1.06-3.93,3.5,3.5,0,0,0-2.8-1.24,5.91,5.91,0,0,0-3.05,1,11.72,11.72,0,0,0-3,2.69v30.17Z" style="fill:#12669f"/><path d="M296.92,166.58V123.8h-5.83V118c3.9-1.4,6.5-3.34,7.77-5.84h5.84v54.45Z" style="fill:#d78a2e"/><path d="M336,166.58V158.8l13.65-19.44,1.06-1.48c.55-.76.91-1.27,1.09-1.55s.5-.75.94-1.45a14.47,14.47,0,0,0,.93-1.61c.17-.38.41-.91.7-1.6a11.06,11.06,0,0,0,.62-1.84c.12-.53.24-1.16.34-1.88a15.94,15.94,0,0,0,.15-2.2,9.77,9.77,0,0,0-1.5-5.52,5.32,5.32,0,0,0-7.19-1.44,5.17,5.17,0,0,0-1.81,2.28,13.67,13.67,0,0,0-.89,3.08,20.58,20.58,0,0,0-.28,3.54v1.95h-7.78v-1.95q0-7.65,3.29-11.88t10.33-4.22q6.61,0,10.11,3.72t3.5,10.44a24.16,24.16,0,0,1-.44,4.71,18.27,18.27,0,0,1-1.4,4.19c-.64,1.34-1.23,2.44-1.76,3.31s-1.28,2-2.24,3.34l-13.61,17.5h19.45v7.78Z" style="fill:#d78a2e"/><path d="M406.12,167.13q-6.63,0-10.12-3.72T392.51,153V151h7.78c0,1.21,0,2.25.1,3.11a14.67,14.67,0,0,0,.46,2.63,6.16,6.16,0,0,0,.95,2.14,4.45,4.45,0,0,0,1.71,1.32,6.81,6.81,0,0,0,5.22,0,4.34,4.34,0,0,0,1.7-1.32,6,6,0,0,0,1-2.14,15.61,15.61,0,0,0,.46-2.63c.07-.86.1-1.9.1-3.11q0-4.68-1.8-7.21t-6-2.52v-7.78q4.26,0,6-1.74c1.18-1.17,1.76-3.18,1.76-6a10.74,10.74,0,0,0-1.27-5.82q-1.28-2-4.56-2a6.14,6.14,0,0,0-2.61.51,4.57,4.57,0,0,0-1.71,1.33,6.08,6.08,0,0,0-.95,2.14,14.67,14.67,0,0,0-.46,2.63c-.07.86-.1,1.9-.1,3.11h-7.78v-1.94q0-6.69,3.51-10.43t10.1-3.73q6.63,0,10.12,3.72t3.49,10.44a13,13,0,0,1-2.06,7.58,10.56,10.56,0,0,1-5.72,4.08,10.2,10.2,0,0,1,5.79,4.77,17.67,17.67,0,0,1,2,8.85q0,7.65-3.28,11.88T406.12,167.13Z" style="fill:#d78a2e"/><path d="M327.54,137.81a5.17,5.17,0,1,1-5.16-5.16A5.16,5.16,0,0,1,327.54,137.81Z" style="fill:#1986bb"/><path d="M384.35,137.81a5.17,5.17,0,1,1-5.16-5.16A5.16,5.16,0,0,1,384.35,137.81Z" style="fill:#1986bb"/><path d="M223.17,82.77V62.46q0-21.75,17.79-21.74a20.4,20.4,0,0,1,6.66,1,13.48,13.48,0,0,1,8.14,7.14,21.43,21.43,0,0,1,1.84,5.62,36.36,36.36,0,0,1,.56,6.68v5.28H246V60.79q0-1.68-.06-2.88a23.32,23.32,0,0,0-.36-2.76,9.52,9.52,0,0,0-.78-2.52A4.55,4.55,0,0,0,243.29,51a4,4,0,0,0-2.33-.68q-5.39,0-5.39,9.07V85.83q0,9,5.39,9a4,4,0,0,0,2.69-.92,5.17,5.17,0,0,0,1.57-2.6,20.3,20.3,0,0,0,.64-3.31,34,34,0,0,0,.17-3.7V78h12.13v5.18a42.44,42.44,0,0,1-.57,6.47,25.49,25.49,0,0,1-1.74,5.76,15.52,15.52,0,0,1-3.12,4.72,13.64,13.64,0,0,1-4.89,3.1,18.61,18.61,0,0,1-6.88,1.18,20.38,20.38,0,0,1-7.08-1.14,14.45,14.45,0,0,1-5.07-3.07,15.36,15.36,0,0,1-3.29-4.74,23.44,23.44,0,0,1-1.82-5.91A39.81,39.81,0,0,1,223.17,82.77Z" style="fill:#002075"/><path d="M263.17,83.07V62.46q0-21.75,17.93-21.74t18,21.74V82.77a39.93,39.93,0,0,1-.55,6.8,23,23,0,0,1-1.86,5.91,15.67,15.67,0,0,1-3.34,4.75,14.22,14.22,0,0,1-5.12,3.09,23,23,0,0,1-14.15,0,14.52,14.52,0,0,1-5.11-3,15.28,15.28,0,0,1-3.32-4.63,23,23,0,0,1-1.87-5.84A37.65,37.65,0,0,1,263.17,83.07Zm23.48,2.8V59.36q0-9.07-5.55-9.07a4.67,4.67,0,0,0-2.83.84,4.76,4.76,0,0,0-1.7,2.28,14.32,14.32,0,0,0-.77,2.86,19.78,19.78,0,0,0-.22,3.09V85.87q0,9,5.52,9T286.65,85.87Z" style="fill:#002075"/><path d="M310.74,103.25V51.18h-9V41.91H332v9.27h-8.82v52.07Z" style="fill:#002075"/><path d="M336.1,103.25V41.91h12.4v61.34Z" style="fill:#002075"/><path d="M354.87,103.25V95.48l16.19-45H356.75V41.94h26.44v7.81l-16.25,45h16.25v8.52Z" style="fill:#002075"/><path d="M386.46,103.25l13.26-61.34h11l13.22,61.34H411.68l-2.52-13.12h-8l-2.39,13.12ZM402,82.49h6.34l-3.1-22.76Z" style="fill:#002075"/><path d="M96.77,129.4a6.31,6.31,0,0,1-6.31,6.3H55.34A6.3,6.3,0,0,1,49,129.4h0a6.3,6.3,0,0,1,6.31-6.3H90.46a6.31,6.31,0,0,1,6.31,6.3Z" style="fill:#1986bb"/><path d="M96.77,105.21a6.32,6.32,0,0,1-6.31,6.31H35.15a6.31,6.31,0,0,1-6.3-6.31h0a6.3,6.3,0,0,1,6.3-6.3H90.46a6.31,6.31,0,0,1,6.31,6.3Z" style="fill:#1986bb"/><path d="M96.77,81.07a6.32,6.32,0,0,1-6.31,6.31H6.3A6.31,6.31,0,0,1,0,81.07H0a6.3,6.3,0,0,1,6.3-6.3H90.46a6.31,6.31,0,0,1,6.31,6.3Z" style="fill:#1986bb"/></svg>