<?xml version="1.0" encoding="utf-8"?>
<!-- Generator: Adobe Illustrator 23.0.3, SVG Export Plug-In . SVG Version: 6.00 Build 0)  -->
<svg version="1.1" id="Capa_6" xmlns="http://www.w3.org/2000/svg" xmlns:xlink="http://www.w3.org/1999/xlink" x="0px" y="0px"
	 viewBox="0 0 561.8 249.5" style="enable-background:new 0 0 561.8 249.5;" xml:space="preserve">
<style type="text/css">
	.st0{fill:#004375;}
	.st1{fill:#4A72B0;}
	.st2{fill:#CA611F;}
</style>
<title>tlapalerotv_logo</title>
<path class="st0" d="M225.9,135.8h-16.5V88.4h-17.4V74.9h51.2v13.6h-17.4V135.8z"/>
<path class="st0" d="M262.3,71.9v63.9h-15.5V71.9H262.3z"/>
<path class="st0" d="M269.1,95.8c5.7-2.9,12-4.5,18.4-4.6c7,0,12.3,2,15.6,5.6c2.2,2.6,3.2,6.4,3.2,12.1v10.2c0,7.1,0.6,8,5.4,8
	l-1.9,9c-2.7,0.8-5.5,1.1-8.3,0.9c-4.6-0.3-7.2-1.9-8.7-5.5c-5.6,4.3-8.9,5.6-14.2,5.6c-7.4,0-12.6-5.4-12.6-13
	c0-8,5.4-12.9,15.7-14.5c3.1-0.5,6.3-0.7,9.5-0.8c-0.2-4.9-3-7.1-8.9-6.6c-4.6,0.4-9.1,1.8-13.2,4L269.1,95.8z M291.3,115.7
	c-7.9,1.1-10.9,3-11.2,6.9c-0.3,2.5,1.5,4.8,4.1,5.1c0.4,0,0.8,0,1.1,0c2.2-0.3,4.3-1.1,6-2.4V115.7z"/>
<path class="st0" d="M314,156.5v-47c0-9.9-0.3-11.6-2.8-15l13.2-3.2c1.7,1.1,3,2.7,3.6,4.6c3.4-2.8,7.7-4.4,12.2-4.5
	c12.1,0,19.7,9,19.7,23.2c0.5,11.8-8.8,21.8-20.6,22.3c-0.5,0-0.9,0-1.4,0c-2.8,0.1-5.6-0.3-8.3-1.1v20.7H314z M329.5,123.7
	c1.7,1.1,3.7,1.5,5.7,1.4c5.5,0,9-4.1,9-10.3c0-6.2-3.8-10.3-9.4-10.3c-1.8,0-3.7,0.4-5.4,1L329.5,123.7z"/>
<path class="st0" d="M365.3,95.8c5.7-2.9,12-4.5,18.4-4.6c7,0,12.3,2,15.6,5.6c2.2,2.6,3.2,6.4,3.2,12.1v10.2c0,7.1,0.7,8,5.4,8
	l-1.8,9.1c-2.7,0.8-5.5,1.1-8.3,0.9c-4.5-0.3-7.2-1.9-8.7-5.5c-5.6,4.3-8.9,5.6-14.2,5.6c-7.4,0-12.6-5.4-12.6-13
	c0-8,5.4-12.9,15.7-14.5c3.1-0.5,6.3-0.7,9.5-0.8c-0.2-4.9-3-7.1-8.9-6.6c-4.6,0.4-9.1,1.8-13.2,4L365.3,95.8z M387.4,115.7
	c-7.9,1.1-10.9,3-11.2,6.9c-0.3,2.5,1.5,4.8,4.1,5.1c0.4,0,0.7,0,1.1,0c2.2-0.3,4.3-1.1,6-2.4V115.7z"/>
<path class="st0" d="M426.3,71.9v63.9h-15.5V71.9H426.3z"/>
<path class="st0" d="M446.1,116.5c0.6,4.9,5.4,8.9,10.8,8.9c5,0.1,9.8-1.4,13.9-4.3l3.2,8.4c-5.1,5.1-12,7.6-20.4,7.6
	c-13.5,0-22.8-9.6-22.8-23.3c0-12.6,10.2-22.8,22.8-22.8c0.1,0,0.2,0,0.3,0c12,0,20,7.7,20,19.3l-4.5,6.2L446.1,116.5z M461.5,108.7
	c-0.3-4.8-3.2-7.8-7.8-7.8c-4.5,0-7.4,3-8.1,7.8H461.5z"/>
<path class="st0" d="M509,107.5c-1.8-0.8-3.6-1.3-5.6-1.5c-3.7-0.3-6.6,1.9-9.9,7v22.7H478v-26.2c0-9.9-0.3-11.6-2.8-15l13.2-3.2
	c3.1,2.1,4.2,4.5,4.5,10.1c2.8-6.3,7.2-10.1,12-10.1c2.6,0,5.3,0.7,7.5,2L509,107.5z"/>
<path class="st0" d="M559,112.6c0.8,13.9-9.7,24.6-24.1,24.6c-8,0-14.3-2.4-18.7-7.1c-3.7-4.2-5.8-9.6-5.7-15.2
	c0-13.5,9.5-22.9,23.7-23.7C547.7,90.5,558.2,99.5,559,112.6z M525.9,113.5c0,6.6,4.1,11.8,9.4,11.8c5.3,0,8.1-3.8,8.1-10.7
	c0-6.2-4.2-11.2-9.2-11.2C529.3,103.4,525.9,107.5,525.9,113.5L525.9,113.5z"/>
<path class="st1" d="M111.3,222.3c0,3.2-2.6,5.7-5.7,5.7s-5.7-2.6-5.7-5.7s2.6-5.7,5.7-5.7C108.8,216.6,111.3,219.1,111.3,222.3
	C111.4,222.3,111.4,222.3,111.3,222.3z"/>
<path class="st1" d="M93.5,222.3c0,3.2-2.6,5.7-5.7,5.7s-5.7-2.6-5.7-5.7c0-3.1,2.6-5.7,5.7-5.7C91,216.6,93.5,219.1,93.5,222.3
	C93.5,222.3,93.5,222.3,93.5,222.3z"/>
<path class="st1" d="M74.5,222.3c0,3.2-2.6,5.7-5.7,5.7c-3.2,0-5.7-2.6-5.7-5.7c0-3.2,2.6-5.7,5.7-5.7c0,0,0,0,0,0
	C72,216.6,74.5,219.1,74.5,222.3C74.5,222.3,74.5,222.3,74.5,222.3z"/>
<path class="st2" d="M150.1,63.5h-40.9c-1.5-2.5-3.5-4.6-5.9-6.3L124.7,34c4.1,1.2,8.4-1.3,9.6-5.4s-1.3-8.4-5.4-9.6
	c-4.1-1.2-8.4,1.3-9.6,5.4c-0.5,1.8-0.3,3.8,0.5,5.5L97.9,54.6c-3.8-1.2-7.8-1.3-11.6-0.4L60.2,11.7c2.2-3.7,0.9-8.4-2.8-10.6
	S49,0.1,46.8,3.8c-2.2,3.7-0.9,8.4,2.8,10.6c1.6,0.9,3.5,1.3,5.4,0.9l25.5,41.3c-2.7,1.7-5.1,4.1-6.7,6.8H29.2
	C13.1,63.5,0,76.6,0,92.7v127.5c0,16.1,13.1,29.2,29.2,29.2c0,0,0,0,0,0h120.9c16.1,0,29.2-13.1,29.2-29.2V92.7
	C179.3,76.6,166.2,63.5,150.1,63.5z M172.5,216.4c0,15-9.7,26.3-26.3,26.3h-113c-15.7,0-26.3-10.4-26.3-26.3V96.5
	c0-15.3,10.4-26.3,26.3-26.3h113c15.3,0,26.3,10.4,26.3,26.3V216.4z"/>
<path class="st0" d="M96.9,123.9l-27.5,27.5c-2.7,2.7-2.7,5.9,0,8.6l12.1,12.1l36.1-36.1l-12.1-12.1
	C102.9,121.3,99.6,121.3,96.9,123.9z"/>
<path class="st0" d="M137.4,79.5H41.9c-12.8,0-23.2,10.4-23.2,23.2v82.5c0,12.8,10.4,23.2,23.2,23.2h95.5
	c12.8,0,23.2-10.4,23.2-23.2v-82.5C160.6,89.9,150.2,79.5,137.4,79.5z M134.7,166c0,0-1.3,7.6-6.3,7c0,0-5.1,0.7-5.5,4.4
	c0,0,0.1,5.5-6.4,5.9c0,0-6.7,2.2-7.6,7.6c-0.7,4.2-7.7,7.2-7.7,7.2l-20.6-20.5l-16-16c-3.2-3.2-3.2-8.5,0-11.7c0,0,0,0,0,0l9.6-9.5
	c0,0-0.6-9.4-12.1-12.1s-19.3-19.3-19.3-19.3c-1.7-3.8-2.3-8-1.9-12.2l0.1-0.5l0.5-0.1c4.2-0.4,8.4,0.2,12.2,1.9
	c0,0,16.6,7.7,19.3,19.3s12.1,12.1,12.1,12.1l10.2-10.2c3.2-3.2,8.5-3.2,11.7,0l16,16l23.3,23.3C146.3,158.5,136.9,159.8,134.7,166z
	"/>
<path class="st2" d="M501.9,218.3l-30.8-55h-78.3c-2.4-0.1-4.2-2.2-4-4.5c0.1-2.2,1.9-3.9,4-4h83.3l25.8,45.8l24.5-43.6
	c1-2.2,3.5-3.1,5.6-2.2c2.2,1,3.1,3.5,2.2,5.6c-0.1,0.3-0.3,0.5-0.4,0.8L501.9,218.3z"/>
<path class="st2" d="M426.4,177.6v47c0,2.4,1.9,4.3,4.3,4.3c2.4,0,4.3-1.9,4.3-4.3v-55.4h-42.2c-2.4,0-4.3,1.9-4.3,4.3
	c0,2.4,1.9,4.3,4.3,4.3c0,0,0,0,0,0L426.4,177.6z"/>
<path class="st2" d="M505.8,240.4c-1,2.1-3.6,3-5.7,2c-0.9-0.4-1.6-1.1-2-2l-35.3-62.8h-13.4v46.9c0,2.4-1.9,4.3-4.3,4.3
	c-2.4,0-4.3-1.9-4.3-4.3c0,0,0,0,0,0v-55.4h27l34.2,60.7l41-72.9c1.2-2.1,3.8-2.8,5.8-1.6c2.1,1.2,2.8,3.8,1.6,5.8L505.8,240.4z"/>
</svg>
